<svg width="194" height="41" viewBox="0 0 194 41" fill="none" xmlns="http://www.w3.org/2000/svg">
<mask id="mask0_1_4" style="mask-type:luminance" maskUnits="userSpaceOnUse" x="0" y="0" width="44" height="41">
<path d="M0 0H43.352V41H0V0Z" fill="white"/>
</mask>
<g mask="url(#mask0_1_4)">
<path fill-rule="evenodd" clip-rule="evenodd" d="M14.8643 0.515995C12.4182 0.515995 10.0739 1.412 8.34417 3.008L7.27034e-06 10.707V14.231C7.27034e-06 16.721 1.15967 18.961 3.00647 20.516C2.058 21.3124 1.30056 22.2831 0.782797 23.3657C0.265033 24.4482 -0.00160524 25.6187 7.27034e-06 26.802V30.326L8.34417 38.024C9.22549 38.8373 10.2764 39.4773 11.4333 39.9052C12.5903 40.3332 13.8293 40.5402 15.0754 40.5139C16.3216 40.4875 17.549 40.2283 18.6835 39.7519C19.818 39.2754 20.836 38.5917 21.676 37.742C22.5161 38.5916 23.5341 39.2752 24.6686 39.7516C25.8031 40.2279 27.0304 40.4871 28.2765 40.5134C29.5226 40.5398 30.7616 40.3328 31.9185 39.9049C33.0755 39.477 34.1264 38.8372 35.0078 38.024L43.352 30.326V26.802C43.352 24.312 42.1923 22.072 40.3455 20.516C41.2938 19.7197 42.0512 18.7492 42.569 17.6668C43.0867 16.5844 43.3534 15.4141 43.352 14.231V10.707L35.0078 3.007C34.1263 2.19388 33.0754 1.5541 31.9184 1.12631C30.7614 0.698515 29.5224 0.491592 28.2763 0.518044C27.0302 0.544495 25.8029 0.803771 24.6684 1.28021C23.534 1.75664 22.516 2.44034 21.676 3.29C20.8129 2.41499 19.7611 1.71619 18.588 1.23846C17.415 0.760737 16.1466 0.514647 14.8643 0.515995ZM27.9176 20.516C27.8135 20.4282 27.7116 20.3381 27.612 20.246L21.676 14.77L15.74 20.247C15.6404 20.3391 15.5385 20.4292 15.4344 20.517C15.5384 20.604 15.6403 20.694 15.74 20.786L21.676 26.262L27.612 20.786C27.7117 20.693 27.8135 20.604 27.9176 20.516ZM24.0842 30.326V32.008C24.084 32.8117 24.3421 33.5974 24.8258 34.2657C25.3096 34.934 25.9973 35.4549 26.802 35.7626C27.6067 36.0702 28.4922 36.1508 29.3465 35.994C30.2008 35.8373 30.9855 35.4503 31.6014 34.882L38.5356 28.485V26.802C38.536 25.9981 38.278 25.2122 37.7942 24.5436C37.3103 23.8751 36.6224 23.354 35.8175 23.0463C35.0126 22.7386 34.1269 22.6582 33.2724 22.8151C32.4179 22.9721 31.6331 23.3594 31.0172 23.928L24.0842 30.326ZM19.2678 30.326L12.3347 23.928C11.7189 23.3594 10.9342 22.9721 10.0798 22.8152C9.22545 22.6582 8.33981 22.7386 7.53495 23.0461C6.73009 23.3537 6.04218 23.8746 5.55827 24.543C5.07436 25.2114 4.81618 25.9972 4.81641 26.801V28.485L11.7495 34.882C12.3653 35.4506 13.15 35.8378 14.0044 35.9948C14.8587 36.1518 15.7444 36.0714 16.5492 35.7638C17.3541 35.4563 18.042 34.9354 18.5259 34.267C19.0098 33.5986 19.268 32.8128 19.2678 32.009V30.326ZM19.2678 9.024V10.707L12.3347 17.104C11.7189 17.6726 10.9342 18.0598 10.0798 18.2168C9.22545 18.3738 8.33981 18.2934 7.53495 17.9858C6.73009 17.6783 6.04218 17.1574 5.55827 16.489C5.07436 15.8206 4.81618 15.0348 4.81641 14.231V12.548L11.7495 6.151C12.3653 5.58242 13.15 5.19515 14.0044 5.03818C14.8587 4.8812 15.7444 4.96158 16.5492 5.26915C17.3541 5.57671 18.042 6.09764 18.5259 6.76602C19.0098 7.4344 19.268 8.2202 19.2678 9.024ZM31.0172 17.104L24.0842 10.707V9.024C24.0842 8.2204 24.3424 7.43485 24.8263 6.76669C25.3101 6.09852 25.9979 5.57775 26.8025 5.27023C27.6072 4.9627 28.4926 4.88224 29.3468 5.03902C30.2009 5.19579 30.9856 5.58276 31.6014 6.151L38.5356 12.548V14.231C38.5358 15.0348 38.2776 15.8206 37.7937 16.489C37.3098 17.1574 36.6219 17.6783 35.817 17.9858C35.0122 18.2934 34.1265 18.3738 33.2721 18.2168C32.4178 18.0598 31.633 17.6726 31.0172 17.104Z" fill="#C7231A"/>
</g>
<path d="M58.8698 29V12.2H71.3161V15.296H62.7194V18.896H70.0026V21.764H62.7194V25.868H71.4202V29H58.8698ZM72.7619 29.024L77.4959 22.988L73.009 16.88H77.8081L80.1361 20.564L82.3991 16.88H87.0811L82.7242 22.916L87.4192 29H82.5551L80.006 25.304L77.4179 28.964L72.7619 29.024ZM94.7554 29.36C93.3508 29.36 92.241 28.996 91.426 28.268C90.6197 27.532 90.2165 26.424 90.2165 24.944V13.388H94.0141V16.88H97.2785V19.688H94.0141V24.308C94.0141 25.02 94.1745 25.52 94.4953 25.808C94.8161 26.096 95.2453 26.24 95.7829 26.24C96.0603 26.24 96.3291 26.212 96.5892 26.156C96.858 26.092 97.1051 26.004 97.3306 25.892L97.8638 28.652C97.4736 28.852 97.0054 29.02 96.4592 29.156C95.9037 29.2942 95.3307 29.3628 94.7554 29.36ZM87.5503 19.688V16.88H90.5937V19.688H87.5503ZM106.111 29.36C104.681 29.36 103.424 29.092 102.34 28.556C101.282 28.0433 100.403 27.2654 99.8038 26.312C99.1968 25.352 98.8934 24.228 98.8934 22.94C98.8934 22.004 99.0668 21.144 99.4136 20.36C99.7531 19.5979 100.258 18.9078 100.896 18.332C101.542 17.7535 102.307 17.3006 103.146 17C104.013 16.68 104.963 16.52 105.994 16.52C107.13 16.52 108.136 16.704 109.012 17.072C109.867 17.4196 110.621 17.9503 111.21 18.62C111.791 19.276 112.194 20.048 112.419 20.936C112.653 21.824 112.675 22.788 112.484 23.828H102.418C102.418 24.388 102.574 24.876 102.886 25.292C103.207 25.708 103.653 26.036 104.226 26.276C104.807 26.508 105.483 26.624 106.255 26.624C107.018 26.624 107.746 26.528 108.439 26.336C109.14 26.141 109.803 25.8454 110.403 25.46L111.665 27.86C111.249 28.156 110.728 28.42 110.104 28.652C109.48 28.876 108.817 29.048 108.114 29.168C107.455 29.2927 106.784 29.357 106.111 29.36ZM102.639 21.416H108.843C108.817 20.704 108.544 20.14 108.023 19.724C107.512 19.308 106.805 19.1 105.903 19.1C105.002 19.1 104.252 19.308 103.653 19.724C103.064 20.14 102.726 20.704 102.639 21.416ZM114.698 29V16.88H118.496V18.248C118.999 17.64 119.593 17.2 120.278 16.928C120.964 16.6573 121.703 16.5185 122.45 16.52C123.672 16.52 124.678 16.744 125.467 17.192C126.265 17.632 126.854 18.204 127.236 18.908C127.626 19.612 127.821 20.352 127.821 21.128V29H124.023V22.22C124.023 21.452 123.789 20.84 123.321 20.384C122.862 19.928 122.194 19.7 121.318 19.7C120.763 19.7 120.273 19.816 119.849 20.048C119.424 20.272 119.09 20.588 118.847 20.996C118.613 21.404 118.496 21.876 118.496 22.412V29H114.698ZM135.605 29.348C134.434 29.348 133.355 29.208 132.367 28.928C131.378 28.64 130.533 28.248 129.83 27.752L131.066 25.304C131.753 25.7369 132.501 26.0801 133.29 26.324C134.088 26.564 134.855 26.684 135.592 26.684C136.32 26.684 136.879 26.584 137.27 26.384C137.668 26.176 137.868 25.88 137.868 25.496C137.868 25.152 137.69 24.9 137.335 24.74C136.988 24.572 136.312 24.392 135.306 24.2C133.572 23.912 132.306 23.46 131.508 22.844C130.71 22.22 130.312 21.364 130.312 20.276C130.312 19.508 130.541 18.832 131.001 18.248C131.469 17.664 132.111 17.212 132.926 16.892C133.741 16.564 134.677 16.4 135.735 16.4C136.775 16.4 137.755 16.532 138.674 16.796C139.602 17.052 140.395 17.412 141.054 17.876L139.858 20.336C139.49 20.0681 139.088 19.8425 138.661 19.664C138.212 19.4697 137.741 19.3208 137.257 19.22C136.789 19.1101 136.309 19.0537 135.826 19.052C135.193 19.052 134.682 19.152 134.291 19.352C133.901 19.544 133.706 19.816 133.706 20.168C133.706 20.52 133.884 20.78 134.239 20.948C134.595 21.116 135.258 21.3 136.229 21.5C138.041 21.852 139.329 22.32 140.092 22.904C140.863 23.48 141.249 24.292 141.249 25.34C141.249 26.148 141.011 26.852 140.534 27.452C140.066 28.052 139.407 28.52 138.557 28.856C137.716 29.184 136.732 29.348 135.605 29.348ZM143.639 29V16.88H147.437V29H143.639ZM145.538 14.96C144.938 14.9711 144.355 14.779 143.899 14.42C143.44 14.052 143.21 13.564 143.21 12.956C143.21 12.34 143.44 11.852 143.899 11.492C144.352 11.1262 144.936 10.9293 145.538 10.94C146.14 10.9293 146.724 11.1262 147.177 11.492C147.636 11.852 147.866 12.34 147.866 12.956C147.866 13.564 147.636 14.052 147.177 14.42C146.72 14.779 146.137 14.9711 145.538 14.96ZM156.768 29.36C155.355 29.36 154.102 29.068 153.01 28.484C151.947 27.9271 151.06 27.1248 150.435 26.156C149.819 25.1801 149.5 24.0691 149.511 22.94C149.511 22.084 149.689 21.272 150.044 20.504C150.395 19.7346 150.908 19.0371 151.553 18.452C152.203 17.852 152.971 17.38 153.855 17.036C154.739 16.692 155.71 16.52 156.768 16.52C158.182 16.52 159.43 16.812 160.514 17.396C161.577 17.9533 162.461 18.7607 163.076 19.736C163.7 20.704 164.012 21.772 164.012 22.94C164.012 23.788 163.835 24.6 163.479 25.376C163.127 26.148 162.614 26.8491 161.97 27.44C161.314 28.0412 160.536 28.5181 159.682 28.844C158.797 29.188 157.826 29.36 156.768 29.36ZM156.768 26.324C157.436 26.324 158.034 26.188 158.563 25.916C159.092 25.636 159.508 25.244 159.812 24.74C160.115 24.228 160.267 23.628 160.267 22.94C160.267 22.244 160.115 21.644 159.812 21.14C159.531 20.6495 159.102 20.245 158.576 19.976C158.047 19.696 157.445 19.556 156.768 19.556C156.092 19.556 155.485 19.696 154.947 19.976C154.419 20.248 154.002 20.636 153.699 21.14C153.404 21.644 153.257 22.244 153.257 22.94C153.257 23.636 153.408 24.236 153.712 24.74C154.015 25.244 154.432 25.636 154.96 25.916C155.489 26.188 156.092 26.324 156.768 26.324ZM166.076 29V16.88H169.874V18.248C170.376 17.64 170.97 17.2 171.655 16.928C172.342 16.6573 173.081 16.5185 173.827 16.52C175.05 16.52 176.056 16.744 176.845 17.192C177.642 17.632 178.232 18.204 178.613 18.908C179.003 19.612 179.199 20.352 179.199 21.128V29H175.401V22.22C175.401 21.452 175.167 20.84 174.699 20.384C174.239 19.928 173.571 19.7 172.696 19.7C172.141 19.7 171.651 19.816 171.226 20.048C170.801 20.272 170.467 20.588 170.225 20.996C169.991 21.404 169.874 21.876 169.874 22.412V29H166.076ZM186.983 29.348C185.813 29.348 184.734 29.208 183.745 28.928C182.757 28.64 181.911 28.248 181.209 27.752L182.445 25.304C183.131 25.7369 183.88 26.0801 184.668 26.324C185.466 26.564 186.233 26.684 186.97 26.684C187.699 26.684 188.258 26.584 188.648 26.384C189.047 26.176 189.246 25.88 189.246 25.496C189.246 25.152 189.069 24.9 188.713 24.74C188.366 24.572 187.69 24.392 186.684 24.2C184.95 23.912 183.684 23.46 182.887 22.844C182.089 22.22 181.69 21.364 181.69 20.276C181.69 19.508 181.92 18.832 182.38 18.248C182.848 17.664 183.489 17.212 184.304 16.892C185.119 16.564 186.056 16.4 187.114 16.4C188.154 16.4 189.134 16.532 190.053 16.796C190.981 17.052 191.774 17.412 192.433 17.876L191.236 20.336C190.868 20.0681 190.467 19.8425 190.04 19.664C189.59 19.4697 189.119 19.3208 188.635 19.22C188.168 19.1101 187.687 19.0537 187.205 19.052C186.572 19.052 186.06 19.152 185.67 19.352C185.28 19.544 185.085 19.816 185.085 20.168C185.085 20.52 185.262 20.78 185.618 20.948C185.973 21.116 186.637 21.3 187.608 21.5C189.42 21.852 190.707 22.32 191.47 22.904C192.242 23.48 192.628 24.292 192.628 25.34C192.628 26.148 192.389 26.852 191.913 27.452C191.444 28.052 190.785 28.52 189.936 28.856C189.095 29.184 188.111 29.348 186.983 29.348Z" fill="white"/>
</svg>
