<svg width="53" height="47" viewBox="0 0 53 47" fill="none" xmlns="http://www.w3.org/2000/svg">
<rect width="53" height="47" rx="10" fill="#37374A"/>
<g clip-path="url(#clip0_11_41)">
<path d="M26 12V14M26 32V34M18.22 15.22L19.64 16.64M32.36 29.36L33.78 30.78M15 23H17M35 23H37M18.22 30.78L19.64 29.36M32.36 16.64L33.78 15.22M31 23C31 25.7614 28.7614 28 26 28C23.2386 28 21 25.7614 21 23C21 20.2386 23.2386 18 26 18C28.7614 18 31 20.2386 31 23Z" stroke="#F5F5F5" stroke-width="2.5" stroke-linecap="round" stroke-linejoin="round"/>
</g>
<defs>
<clipPath id="clip0_11_41">
<rect width="24" height="24" fill="white" transform="translate(14 11)"/>
</clipPath>
</defs>
</svg>
